<svg width="545" height="165" viewBox="0 0 545 165" fill="none" xmlns="http://www.w3.org/2000/svg">
<rect width="545" height="165" rx="82.5" fill="#5C29C4"/>
<path d="M460.237 89.9L456.537 45.4H479.137L475.337 89.9H460.237ZM467.837 116.3C464.503 116.3 461.77 115.267 459.637 113.2C457.503 111.133 456.437 108.667 456.437 105.8C456.437 102.867 457.503 100.433 459.637 98.5C461.77 96.5 464.503 95.5 467.837 95.5C471.17 95.5 473.87 96.5 475.937 98.5C478.07 100.433 479.137 102.867 479.137 105.8C479.137 108.667 478.07 111.133 475.937 113.2C473.87 115.267 471.17 116.3 467.837 116.3Z" fill="#FFCC00"/>
<path d="M406.148 115.4V85.8L410.748 97.7L379.448 45.4H400.348L422.948 83.3H410.848L433.548 45.4H452.748L421.548 97.7L425.948 85.8V115.4H406.148Z" fill="white"/>
<path d="M334.541 115.4V45.4H354.341V99.7H387.741V115.4H334.541Z" fill="white"/>
<path d="M263.17 115.4V103L304.37 54.1L306.77 61.1H264.07V45.4H324.37V57.8L283.17 106.7L280.77 99.7H325.87V115.4H263.17Z" fill="white"/>
<path d="M232.784 115.4V45.4H252.584V115.4H232.784Z" fill="white"/>
<path d="M186.47 116.8C176.137 116.8 168.07 113.967 162.27 108.3C156.47 102.633 153.57 94.6 153.57 84.2V45.4H173.37V83.6C173.37 89.6 174.537 93.9 176.87 96.5C179.27 99.1 182.537 100.4 186.67 100.4C190.804 100.4 194.037 99.1 196.37 96.5C198.704 93.9 199.87 89.6 199.87 83.6V45.4H219.37V84.2C219.37 94.6 216.47 102.633 210.67 108.3C204.87 113.967 196.804 116.8 186.47 116.8Z" fill="white"/>
<path d="M104.9 116.8C99.3 116.8 94.1333 115.9 89.4 114.1C84.6667 112.3 80.5333 109.767 77 106.5C73.5333 103.167 70.8333 99.3 68.9 94.9C66.9667 90.5 66 85.6667 66 80.4C66 75.1333 66.9667 70.3 68.9 65.9C70.8333 61.5 73.5333 57.6667 77 54.4C80.5333 51.0667 84.6667 48.5 89.4 46.7C94.1333 44.9 99.3 44 104.9 44C110.567 44 115.733 44.9 120.4 46.7C125.133 48.5 129.233 51.0333 132.7 54.3C136.167 57.5667 138.867 61.4333 140.8 65.9C142.8 70.3 143.8 75.1333 143.8 80.4C143.8 85.6667 142.8 90.5333 140.8 95C138.867 99.4 136.167 103.233 132.7 106.5C129.233 109.767 125.133 112.3 120.4 114.1C115.733 115.9 110.567 116.8 104.9 116.8ZM127.8 132.3C124.8 132.3 122 131.967 119.4 131.3C116.8 130.7 114.233 129.7 111.7 128.3C109.233 126.9 106.633 125 103.9 122.6C101.233 120.2 98.2333 117.233 94.9 113.7L115.6 108.5C117.267 110.967 118.767 112.9 120.1 114.3C121.433 115.7 122.733 116.7 124 117.3C125.333 117.9 126.733 118.2 128.2 118.2C132.067 118.2 135.6 116.567 138.8 113.3L147.4 123.5C142.533 129.367 136 132.3 127.8 132.3ZM104.9 100.4C107.567 100.4 110.033 99.9333 112.3 99C114.633 98.0667 116.633 96.7333 118.3 95C120.033 93.2 121.367 91.0667 122.3 88.6C123.3 86.1333 123.8 83.4 123.8 80.4C123.8 77.3333 123.3 74.6 122.3 72.2C121.367 69.7333 120.033 67.6333 118.3 65.9C116.633 64.1 114.633 62.7333 112.3 61.8C110.033 60.8667 107.567 60.4 104.9 60.4C102.233 60.4 99.7333 60.8667 97.4 61.8C95.1333 62.7333 93.1333 64.1 91.4 65.9C89.7333 67.6333 88.4 69.7333 87.4 72.2C86.4667 74.6 86 77.3333 86 80.4C86 83.4 86.4667 86.1333 87.4 88.6C88.4 91.0667 89.7333 93.2 91.4 95C93.1333 96.7333 95.1333 98.0667 97.4 99C99.7333 99.9333 102.233 100.4 104.9 100.4Z" fill="white"/>
</svg>
